<svg width="193" height="53" viewBox="0 0 193 53" fill="none" xmlns="http://www.w3.org/2000/svg">
<path d="M26.5935 52.9289C41.1341 52.9289 52.9215 41.1389 52.9215 26.5951C52.9215 12.0513 41.1341 0.26123 26.5935 0.26123C12.053 0.26123 0.265625 12.0513 0.265625 26.5951C0.265625 41.1389 12.053 52.9289 26.5935 52.9289Z" fill="#C5A461"/>
<mask id="mask0_2421_798" style="mask-type:alpha" maskUnits="userSpaceOnUse" x="0" y="0" width="53" height="53">
<path d="M26.5935 52.9289C41.1341 52.9289 52.9215 41.1389 52.9215 26.5951C52.9215 12.0513 41.1341 0.26123 26.5935 0.26123C12.053 0.26123 0.265625 12.0513 0.265625 26.5951C0.265625 41.1389 12.053 52.9289 26.5935 52.9289Z" fill="#001E64"/>
</mask>
<g mask="url(#mask0_2421_798)">
<mask id="mask1_2421_798" style="mask-type:luminance" maskUnits="userSpaceOnUse" x="0" y="0" width="54" height="54">
<path d="M36.7256 51.0595C50.2337 45.4642 56.6472 29.9753 51.0506 16.4642C45.454 2.95308 29.9666 -3.46392 16.4585 2.13142C2.95046 7.72677 -3.46305 23.2156 2.13355 36.7267C7.73016 50.2379 23.2176 56.6549 36.7256 51.0595Z" fill="white"/>
</mask>
<g mask="url(#mask1_2421_798)">
<path fill-rule="evenodd" clip-rule="evenodd" d="M40.4204 23.1795L23.7842 39.8156L21.9575 37.9948L13.6779 29.7094L-0.668904 44.0562L-4.31641 40.4028L13.6779 22.4144L15.4987 24.2352L23.7842 32.5206L36.7669 19.532H24.7806V14.3721H45.5743V35.1717H40.4204V23.1795Z" fill="#F2F2F2"/>
</g>
</g>
<path d="M69.5122 31V3H75.3122V31H69.5122ZM80.0506 31V10.16H85.5306V11.88C87.104 10.4667 89.0506 9.76 91.3706 9.76C92.9973 9.76 94.424 10.12 95.6506 10.84C96.904 11.5333 97.8773 12.5067 98.5706 13.76C99.264 14.9867 99.6106 16.4267 99.6106 18.08V31H94.1306V18.88C94.1306 17.52 93.744 16.4533 92.9706 15.68C92.1973 14.88 91.144 14.48 89.8106 14.48C88.8773 14.48 88.0506 14.6667 87.3306 15.04C86.6106 15.3867 86.0106 15.8933 85.5306 16.56V31H80.0506ZM109.389 31L100.469 10.16H106.429L112.149 24.04L117.829 10.16H123.669L114.709 31H109.389ZM135.446 31.4C133.366 31.4 131.473 30.92 129.766 29.96C128.086 29 126.753 27.7067 125.766 26.08C124.779 24.4533 124.286 22.6267 124.286 20.6C124.286 18.5733 124.753 16.7467 125.686 15.12C126.646 13.4933 127.939 12.2 129.566 11.24C131.193 10.28 133.006 9.8 135.006 9.8C137.006 9.8 138.779 10.2933 140.326 11.28C141.873 12.2667 143.086 13.6 143.966 15.28C144.873 16.96 145.326 18.8667 145.326 21V22.44H129.886C130.126 23.2667 130.513 24.0133 131.046 24.68C131.606 25.3467 132.286 25.8667 133.086 26.24C133.913 26.6133 134.793 26.8 135.726 26.8C136.659 26.8 137.513 26.6533 138.286 26.36C139.086 26.0667 139.766 25.6533 140.326 25.12L143.926 28.4C142.646 29.44 141.326 30.2 139.966 30.68C138.633 31.16 137.126 31.4 135.446 31.4ZM129.806 18.52H139.926C139.739 17.6933 139.393 16.9733 138.886 16.36C138.406 15.72 137.819 15.2267 137.126 14.88C136.459 14.5067 135.713 14.32 134.886 14.32C134.033 14.32 133.259 14.4933 132.566 14.84C131.873 15.1867 131.286 15.68 130.806 16.32C130.353 16.9333 130.019 17.6667 129.806 18.52ZM148.683 31V10.16H154.163V11.88C155.737 10.4667 157.683 9.76 160.003 9.76C161.63 9.76 163.057 10.12 164.283 10.84C165.537 11.5333 166.51 12.5067 167.203 13.76C167.897 14.9867 168.243 16.4267 168.243 18.08V31H162.763V18.88C162.763 17.52 162.377 16.4533 161.603 15.68C160.83 14.88 159.777 14.48 158.443 14.48C157.51 14.48 156.683 14.6667 155.963 15.04C155.243 15.3867 154.643 15.8933 154.163 16.56V31H148.683ZM179.034 31.36C177.541 31.36 176.221 31.0933 175.074 30.56C173.928 30 173.034 29.24 172.394 28.28C171.754 27.32 171.434 26.2133 171.434 24.96C171.434 22.96 172.181 21.4133 173.674 20.32C175.194 19.2 177.274 18.64 179.914 18.64C181.728 18.64 183.434 18.92 185.034 19.48V17.96C185.034 16.76 184.661 15.8533 183.914 15.24C183.168 14.6267 182.074 14.32 180.634 14.32C179.754 14.32 178.808 14.4667 177.794 14.76C176.781 15.0267 175.608 15.4533 174.274 16.04L172.274 12C173.928 11.2533 175.501 10.6933 176.994 10.32C178.514 9.94667 180.034 9.76 181.554 9.76C184.354 9.76 186.528 10.44 188.074 11.8C189.648 13.1333 190.434 15.0267 190.434 17.48V31H185.034V29.52C184.181 30.16 183.261 30.6267 182.274 30.92C181.288 31.2133 180.208 31.36 179.034 31.36ZM176.634 24.84C176.634 25.64 176.981 26.28 177.674 26.76C178.368 27.2133 179.288 27.44 180.434 27.44C181.341 27.44 182.181 27.3333 182.954 27.12C183.728 26.88 184.421 26.5333 185.034 26.08V23.04C184.368 22.7733 183.674 22.5733 182.954 22.44C182.234 22.3067 181.461 22.24 180.634 22.24C179.381 22.24 178.394 22.48 177.674 22.96C176.981 23.4133 176.634 24.04 176.634 24.84Z" fill="#1C2539"/>
<path d="M68.0927 50V39.15H72.7892C73.5022 39.15 74.1222 39.2688 74.6492 39.5065C75.1762 39.7442 75.5844 40.08 75.8737 40.514C76.163 40.9377 76.3077 41.4388 76.3077 42.0175C76.3077 42.5445 76.1734 43.0095 75.9047 43.4125C75.636 43.8155 75.2589 44.1358 74.7732 44.3735C75.3829 44.5905 75.8582 44.9212 76.1992 45.3655C76.5505 45.7995 76.7262 46.311 76.7262 46.9C76.7262 47.5303 76.5712 48.078 76.2612 48.543C75.9512 49.008 75.5172 49.3697 74.9592 49.628C74.4012 49.876 73.745 50 72.9907 50H68.0927ZM69.7202 43.7535H72.6962C73.3059 43.7535 73.7915 43.6088 74.1532 43.3195C74.5149 43.0302 74.6957 42.6375 74.6957 42.1415C74.6957 41.6455 74.5149 41.2528 74.1532 40.9635C73.7915 40.6742 73.3059 40.5295 72.6962 40.5295H69.7202V43.7535ZM69.7202 48.6205H72.8667C73.5487 48.6205 74.086 48.4603 74.4787 48.14C74.8817 47.8197 75.0832 47.3857 75.0832 46.838C75.0832 46.3007 74.8817 45.8718 74.4787 45.5515C74.086 45.2208 73.5487 45.0555 72.8667 45.0555H69.7202V48.6205ZM81.2077 50.155C80.5981 50.155 80.0607 50.0258 79.5957 49.7675C79.1307 49.5092 78.7691 49.1475 78.5107 48.6825C78.2524 48.2072 78.1232 47.6647 78.1232 47.055V42.1105H79.6577V46.7915C79.6577 47.4115 79.8334 47.9023 80.1847 48.264C80.5464 48.6257 81.0269 48.8065 81.6262 48.8065C82.0499 48.8065 82.4271 48.7187 82.7577 48.543C83.0884 48.357 83.3571 48.0987 83.5637 47.768V42.1105H85.1137V50H83.5637V49.194C82.9541 49.8347 82.1687 50.155 81.2077 50.155ZM89.6612 50.155C88.9792 50.155 88.3385 50.0568 87.7392 49.8605C87.1502 49.6538 86.6387 49.3645 86.2047 48.9925L87.0572 47.9695C87.4602 48.2898 87.8735 48.5378 88.2972 48.7135C88.7312 48.8788 89.1703 48.9615 89.6147 48.9615C90.1727 48.9615 90.6273 48.853 90.9787 48.636C91.33 48.419 91.5057 48.1348 91.5057 47.7835C91.5057 47.4942 91.4023 47.2668 91.1957 47.1015C90.989 46.9362 90.6687 46.8225 90.2347 46.7605L88.8087 46.559C88.0233 46.4453 87.4343 46.2025 87.0417 45.8305C86.649 45.4585 86.4527 44.9625 86.4527 44.3425C86.4527 43.8672 86.5818 43.4538 86.8402 43.1025C87.0985 42.7408 87.4602 42.4618 87.9252 42.2655C88.3902 42.0588 88.9327 41.9555 89.5527 41.9555C90.121 41.9555 90.6687 42.0382 91.1957 42.2035C91.7227 42.3688 92.229 42.6272 92.7147 42.9785L91.9242 44.0015C91.4902 43.7122 91.0665 43.5003 90.6532 43.366C90.2502 43.2317 89.842 43.1645 89.4287 43.1645C88.9533 43.1645 88.571 43.2678 88.2817 43.4745C87.9923 43.6708 87.8477 43.9292 87.8477 44.2495C87.8477 44.5388 87.9458 44.7662 88.1422 44.9315C88.3488 45.0865 88.6847 45.195 89.1497 45.257L90.5757 45.4585C91.361 45.5722 91.9552 45.815 92.3582 46.187C92.7612 46.5487 92.9627 47.0395 92.9627 47.6595C92.9627 48.1348 92.818 48.5637 92.5287 48.946C92.2393 49.318 91.8467 49.6125 91.3507 49.8295C90.8547 50.0465 90.2915 50.155 89.6612 50.155ZM94.1538 50V42.1105H95.7038V50H94.1538ZM94.9288 40.8395C94.6704 40.8395 94.4483 40.7465 94.2623 40.5605C94.0763 40.3642 93.9833 40.1368 93.9833 39.8785C93.9833 39.6098 94.0763 39.3877 94.2623 39.212C94.4483 39.026 94.6704 38.933 94.9288 38.933C95.1974 38.933 95.4248 39.026 95.6108 39.212C95.7968 39.3877 95.8898 39.6098 95.8898 39.8785C95.8898 40.1368 95.7968 40.3642 95.6108 40.5605C95.4248 40.7465 95.1974 40.8395 94.9288 40.8395ZM97.5292 50V42.1105H99.0792V42.9165C99.6889 42.2758 100.479 41.9555 101.451 41.9555C102.06 41.9555 102.593 42.0847 103.047 42.343C103.512 42.6013 103.874 42.963 104.132 43.428C104.401 43.893 104.535 44.4303 104.535 45.04V50H102.985V45.3035C102.985 44.6835 102.81 44.1978 102.458 43.8465C102.117 43.4848 101.637 43.304 101.017 43.304C100.603 43.304 100.231 43.3918 99.9007 43.5675C99.5701 43.7432 99.2962 43.9963 99.0792 44.327V50H97.5292ZM110.106 50.1395C109.331 50.1395 108.628 49.9587 107.998 49.597C107.378 49.2353 106.882 48.7445 106.51 48.1245C106.148 47.5045 105.967 46.8122 105.967 46.0475C105.967 45.2932 106.143 44.6112 106.494 44.0015C106.846 43.3815 107.321 42.8907 107.92 42.529C108.52 42.157 109.186 41.971 109.92 41.971C110.653 41.971 111.304 42.157 111.873 42.529C112.441 42.8907 112.891 43.3867 113.221 44.017C113.562 44.637 113.733 45.3397 113.733 46.125V46.559H107.517C107.6 46.993 107.76 47.3805 107.998 47.7215C108.246 48.0625 108.556 48.3312 108.928 48.5275C109.31 48.7238 109.723 48.822 110.168 48.822C110.55 48.822 110.917 48.7652 111.268 48.6515C111.63 48.5275 111.93 48.3518 112.167 48.1245L113.159 49.101C112.694 49.4523 112.214 49.7158 111.718 49.8915C111.232 50.0568 110.695 50.1395 110.106 50.1395ZM107.533 45.3965H112.198C112.136 44.9832 111.992 44.6215 111.764 44.3115C111.547 43.9912 111.273 43.7432 110.943 43.5675C110.622 43.3815 110.271 43.2885 109.889 43.2885C109.496 43.2885 109.134 43.3763 108.804 43.552C108.473 43.7277 108.194 43.9757 107.967 44.296C107.75 44.606 107.605 44.9728 107.533 45.3965ZM117.997 50.155C117.315 50.155 116.674 50.0568 116.075 49.8605C115.486 49.6538 114.975 49.3645 114.541 48.9925L115.393 47.9695C115.796 48.2898 116.209 48.5378 116.633 48.7135C117.067 48.8788 117.506 48.9615 117.951 48.9615C118.509 48.9615 118.963 48.853 119.315 48.636C119.666 48.419 119.842 48.1348 119.842 47.7835C119.842 47.4942 119.738 47.2668 119.532 47.1015C119.325 46.9362 119.005 46.8225 118.571 46.7605L117.145 46.559C116.359 46.4453 115.77 46.2025 115.378 45.8305C114.985 45.4585 114.789 44.9625 114.789 44.3425C114.789 43.8672 114.918 43.4538 115.176 43.1025C115.434 42.7408 115.796 42.4618 116.261 42.2655C116.726 42.0588 117.269 41.9555 117.889 41.9555C118.457 41.9555 119.005 42.0382 119.532 42.2035C120.059 42.3688 120.565 42.6272 121.051 42.9785L120.26 44.0015C119.826 43.7122 119.402 43.5003 118.989 43.366C118.586 43.2317 118.178 43.1645 117.765 43.1645C117.289 43.1645 116.907 43.2678 116.618 43.4745C116.328 43.6708 116.184 43.9292 116.184 44.2495C116.184 44.5388 116.282 44.7662 116.478 44.9315C116.685 45.0865 117.021 45.195 117.486 45.257L118.912 45.4585C119.697 45.5722 120.291 45.815 120.694 46.187C121.097 46.5487 121.299 47.0395 121.299 47.6595C121.299 48.1348 121.154 48.5637 120.865 48.946C120.575 49.318 120.183 49.6125 119.687 49.8295C119.191 50.0465 118.627 50.155 117.997 50.155ZM125.202 50.155C124.52 50.155 123.88 50.0568 123.28 49.8605C122.691 49.6538 122.18 49.3645 121.746 48.9925L122.598 47.9695C123.001 48.2898 123.415 48.5378 123.838 48.7135C124.272 48.8788 124.711 48.9615 125.156 48.9615C125.714 48.9615 126.168 48.853 126.52 48.636C126.871 48.419 127.047 48.1348 127.047 47.7835C127.047 47.4942 126.943 47.2668 126.737 47.1015C126.53 46.9362 126.21 46.8225 125.776 46.7605L124.35 46.559C123.564 46.4453 122.975 46.2025 122.583 45.8305C122.19 45.4585 121.994 44.9625 121.994 44.3425C121.994 43.8672 122.123 43.4538 122.381 43.1025C122.64 42.7408 123.001 42.4618 123.466 42.2655C123.931 42.0588 124.474 41.9555 125.094 41.9555C125.662 41.9555 126.21 42.0382 126.737 42.2035C127.264 42.3688 127.77 42.6272 128.256 42.9785L127.465 44.0015C127.031 43.7122 126.608 43.5003 126.194 43.366C125.791 43.2317 125.383 43.1645 124.97 43.1645C124.494 43.1645 124.112 43.2678 123.823 43.4745C123.533 43.6708 123.389 43.9292 123.389 44.2495C123.389 44.5388 123.487 44.7662 123.683 44.9315C123.89 45.0865 124.226 45.195 124.691 45.257L126.117 45.4585C126.902 45.5722 127.496 45.815 127.899 46.187C128.302 46.5487 128.504 47.0395 128.504 47.6595C128.504 48.1348 128.359 48.5637 128.07 48.946C127.78 49.318 127.388 49.6125 126.892 49.8295C126.396 50.0465 125.833 50.155 125.202 50.155ZM136.794 50.155C135.926 50.155 135.089 49.9845 134.283 49.6435C133.477 49.3025 132.764 48.822 132.144 48.202L133.136 47.055C133.725 47.6337 134.324 48.0625 134.934 48.3415C135.554 48.6205 136.199 48.76 136.871 48.76C137.398 48.76 137.858 48.6877 138.251 48.543C138.654 48.388 138.964 48.171 139.181 47.892C139.398 47.613 139.506 47.2978 139.506 46.9465C139.506 46.4608 139.336 46.0888 138.995 45.8305C138.654 45.5722 138.09 45.3758 137.305 45.2415L135.492 44.947C134.5 44.7713 133.756 44.451 133.26 43.986C132.774 43.521 132.531 42.901 132.531 42.126C132.531 41.506 132.696 40.9635 133.027 40.4985C133.358 40.0232 133.823 39.6563 134.422 39.398C135.032 39.1397 135.734 39.0105 136.53 39.0105C137.315 39.0105 138.085 39.1397 138.84 39.398C139.604 39.646 140.291 40.0077 140.901 40.483L140.002 41.723C138.834 40.8343 137.651 40.39 136.453 40.39C135.977 40.39 135.564 40.4572 135.213 40.5915C134.861 40.7258 134.587 40.917 134.391 41.165C134.195 41.4027 134.097 41.6817 134.097 42.002C134.097 42.4463 134.246 42.7873 134.546 43.025C134.846 43.2523 135.342 43.4177 136.034 43.521L137.786 43.8155C138.933 44.0015 139.775 44.3373 140.312 44.823C140.849 45.3087 141.118 45.9752 141.118 46.8225C141.118 47.4838 140.937 48.0677 140.576 48.574C140.214 49.07 139.708 49.4575 139.057 49.7365C138.406 50.0155 137.651 50.155 136.794 50.155ZM146.342 50.155C145.578 50.155 144.88 49.9742 144.25 49.6125C143.63 49.2508 143.139 48.76 142.777 48.14C142.416 47.52 142.235 46.8277 142.235 46.063C142.235 45.2983 142.416 44.606 142.777 43.986C143.139 43.366 143.63 42.8752 144.25 42.5135C144.88 42.1415 145.578 41.9555 146.342 41.9555C147.117 41.9555 147.815 42.1415 148.435 42.5135C149.055 42.8752 149.546 43.366 149.907 43.986C150.269 44.606 150.45 45.2983 150.45 46.063C150.45 46.8277 150.269 47.52 149.907 48.14C149.546 48.76 149.055 49.2508 148.435 49.6125C147.815 49.9742 147.117 50.155 146.342 50.155ZM146.342 48.791C146.828 48.791 147.267 48.6722 147.66 48.4345C148.052 48.1865 148.362 47.8558 148.59 47.4425C148.817 47.0292 148.931 46.5642 148.931 46.0475C148.931 45.5412 148.812 45.0865 148.574 44.6835C148.347 44.2702 148.037 43.9395 147.644 43.6915C147.262 43.4435 146.828 43.3195 146.342 43.3195C145.857 43.3195 145.417 43.4435 145.025 43.6915C144.642 43.9395 144.332 44.2702 144.095 44.6835C143.867 45.0865 143.754 45.5412 143.754 46.0475C143.754 46.5642 143.867 47.0292 144.095 47.4425C144.322 47.8558 144.632 48.1865 145.025 48.4345C145.417 48.6722 145.857 48.791 146.342 48.791ZM151.915 50V39.15L153.465 38.8555V50H151.915ZM158.344 50.155C157.735 50.155 157.197 50.0258 156.732 49.7675C156.267 49.5092 155.906 49.1475 155.647 48.6825C155.389 48.2072 155.26 47.6647 155.26 47.055V42.1105H156.794V46.7915C156.794 47.4115 156.97 47.9023 157.321 48.264C157.683 48.6257 158.164 48.8065 158.763 48.8065C159.187 48.8065 159.564 48.7187 159.894 48.543C160.225 48.357 160.494 48.0987 160.7 47.768V42.1105H162.25V50H160.7V49.194C160.091 49.8347 159.305 50.155 158.344 50.155ZM167.464 50.1395C166.7 50.1395 166.116 49.9638 165.713 49.6125C165.31 49.2508 165.108 48.729 165.108 48.047V43.4125H163.434V42.1105H165.108V40.0955L166.643 39.7235V42.1105H168.968V43.4125H166.643V47.6905C166.643 48.0935 166.731 48.3828 166.906 48.5585C167.092 48.7238 167.392 48.8065 167.805 48.8065C168.022 48.8065 168.214 48.791 168.379 48.76C168.555 48.729 168.741 48.6825 168.937 48.6205V49.9225C168.73 49.9948 168.487 50.0465 168.208 50.0775C167.94 50.1188 167.692 50.1395 167.464 50.1395ZM170.11 50V42.1105H171.66V50H170.11ZM170.885 40.8395C170.626 40.8395 170.404 40.7465 170.218 40.5605C170.032 40.3642 169.939 40.1368 169.939 39.8785C169.939 39.6098 170.032 39.3877 170.218 39.212C170.404 39.026 170.626 38.933 170.885 38.933C171.153 38.933 171.381 39.026 171.567 39.212C171.753 39.3877 171.846 39.6098 171.846 39.8785C171.846 40.1368 171.753 40.3642 171.567 40.5605C171.381 40.7465 171.153 40.8395 170.885 40.8395ZM177.236 50.155C176.472 50.155 175.774 49.9742 175.144 49.6125C174.524 49.2508 174.033 48.76 173.671 48.14C173.31 47.52 173.129 46.8277 173.129 46.063C173.129 45.2983 173.31 44.606 173.671 43.986C174.033 43.366 174.524 42.8752 175.144 42.5135C175.774 42.1415 176.472 41.9555 177.236 41.9555C178.011 41.9555 178.709 42.1415 179.329 42.5135C179.949 42.8752 180.44 43.366 180.801 43.986C181.163 44.606 181.344 45.2983 181.344 46.063C181.344 46.8277 181.163 47.52 180.801 48.14C180.44 48.76 179.949 49.2508 179.329 49.6125C178.709 49.9742 178.011 50.155 177.236 50.155ZM177.236 48.791C177.722 48.791 178.161 48.6722 178.554 48.4345C178.946 48.1865 179.256 47.8558 179.484 47.4425C179.711 47.0292 179.825 46.5642 179.825 46.0475C179.825 45.5412 179.706 45.0865 179.468 44.6835C179.241 44.2702 178.931 43.9395 178.538 43.6915C178.156 43.4435 177.722 43.3195 177.236 43.3195C176.751 43.3195 176.311 43.4435 175.919 43.6915C175.536 43.9395 175.226 44.2702 174.989 44.6835C174.761 45.0865 174.648 45.5412 174.648 46.0475C174.648 46.5642 174.761 47.0292 174.989 47.4425C175.216 47.8558 175.526 48.1865 175.919 48.4345C176.311 48.6722 176.751 48.791 177.236 48.791ZM182.81 50V42.1105H184.36V42.9165C184.969 42.2758 185.76 41.9555 186.731 41.9555C187.341 41.9555 187.873 42.0847 188.328 42.343C188.793 42.6013 189.154 42.963 189.413 43.428C189.681 43.893 189.816 44.4303 189.816 45.04V50H188.266V45.3035C188.266 44.6835 188.09 44.1978 187.739 43.8465C187.398 43.4848 186.917 43.304 186.297 43.304C185.884 43.304 185.512 43.3918 185.181 43.5675C184.85 43.7432 184.577 43.9963 184.36 44.327V50H182.81Z" fill="#1C2539"/>
</svg>
