<svg width="76" height="76" viewBox="0 0 76 76" fill="none" xmlns="http://www.w3.org/2000/svg">
<path d="M0 0H76V62V76H62H38H0V0Z" fill="#F2F2F2"/>
<g clip-path="url(#clip0_2000_612)">
<path d="M54.2 36.2C53.4188 36.2 52.7588 36.7034 52.5104 37.4H48.8V35H52.4C52.7318 35 53 34.7318 53 34.4C53 34.0682 52.7318 33.8 52.4 33.8H48.8V31.4H53C53.6618 31.4 54.2 30.8618 54.2 30.2V28.8896C54.8966 28.6412 55.4 27.9812 55.4 27.2C55.4 26.2076 54.5924 25.4 53.6 25.4C52.6076 25.4 51.8 26.2076 51.8 27.2C51.8 27.9812 52.3034 28.6412 53 28.8896V30.2H48.8V29.6C48.8 28.2764 47.7236 27.2 46.4 27.2H45.8V23H47.1104C47.3588 23.6966 48.0188 24.2 48.8 24.2C49.7924 24.2 50.6 23.3924 50.6 22.4C50.6 21.4076 49.7924 20.6 48.8 20.6C48.0188 20.6 47.3588 21.1034 47.1104 21.8H45.8C45.1382 21.8 44.6 22.3382 44.6 23V27.2H42.2V23.6C42.2 23.2682 41.9318 23 41.6 23C41.2682 23 41 23.2682 41 23.6V27.2H38.6V23.4896C39.2966 23.2412 39.8 22.5812 39.8 21.8C39.8 20.8076 38.9924 20 38 20C37.0076 20 36.2 20.8076 36.2 21.8C36.2 22.5812 36.7034 23.2412 37.4 23.4896V27.2H35V23.6C35 23.2682 34.7318 23 34.4 23C34.0682 23 33.8 23.2682 33.8 23.6V27.2H31.4V23C31.4 22.3382 30.8618 21.8 30.2 21.8H28.8896C28.6412 21.1034 27.9812 20.6 27.2 20.6C26.2076 20.6 25.4 21.4076 25.4 22.4C25.4 23.3924 26.2076 24.2 27.2 24.2C27.9812 24.2 28.6412 23.6966 28.8896 23H30.2V27.2H29.6C28.2764 27.2 27.2 28.2764 27.2 29.6V30.2H23V28.8896C23.6966 28.6412 24.2 27.9812 24.2 27.2C24.2 26.2076 23.3924 25.4 22.4 25.4C21.4076 25.4 20.6 26.2076 20.6 27.2C20.6 27.9812 21.1034 28.6412 21.8 28.8896V30.2C21.8 30.8618 22.3382 31.4 23 31.4H27.2V33.8H23.6C23.2682 33.8 23 34.0682 23 34.4C23 34.7318 23.2682 35 23.6 35H27.2V37.4H23.4896C23.2412 36.7034 22.5812 36.2 21.8 36.2C20.8076 36.2 20 37.0076 20 38C20 38.9924 20.8076 39.8 21.8 39.8C22.5812 39.8 23.2412 39.2966 23.4896 38.6H27.2V41H23.6C23.2682 41 23 41.2682 23 41.6C23 41.9318 23.2682 42.2 23.6 42.2H27.2V44.6H23C22.3382 44.6 21.8 45.1382 21.8 45.8V47.1104C21.1034 47.3588 20.6 48.0188 20.6 48.8C20.6 49.7924 21.4076 50.6 22.4 50.6C23.3924 50.6 24.2 49.7924 24.2 48.8C24.2 48.0188 23.6966 47.3588 23 47.1104V45.8H27.2V46.4C27.2 47.7236 28.2764 48.8 29.6 48.8H30.2V53H28.8896C28.6412 52.3034 27.9812 51.8 27.2 51.8C26.2076 51.8 25.4 52.6076 25.4 53.6C25.4 54.5924 26.2076 55.4 27.2 55.4C27.9812 55.4 28.6412 54.8966 28.8896 54.2H30.2C30.8618 54.2 31.4 53.6618 31.4 53V48.8H33.8V52.4C33.8 52.7318 34.0682 53 34.4 53C34.7318 53 35 52.7318 35 52.4V48.8H37.4V52.5104C36.7034 52.7588 36.2 53.4188 36.2 54.2C36.2 55.1924 37.0076 56 38 56C38.9924 56 39.8 55.1924 39.8 54.2C39.8 53.4188 39.2966 52.7588 38.6 52.5104V48.8H41V52.4C41 52.7318 41.2682 53 41.6 53C41.9318 53 42.2 52.7318 42.2 52.4V48.8H44.6V53C44.6 53.6618 45.1382 54.2 45.8 54.2H47.1104C47.3588 54.8966 48.0188 55.4 48.8 55.4C49.7924 55.4 50.6 54.5924 50.6 53.6C50.6 52.6076 49.7924 51.8 48.8 51.8C48.0188 51.8 47.3588 52.3034 47.1104 53H45.8V48.8H46.4C47.7236 48.8 48.8 47.7236 48.8 46.4V45.8H53V47.1104C52.3034 47.3588 51.8 48.0188 51.8 48.8C51.8 49.7924 52.6076 50.6 53.6 50.6C54.5924 50.6 55.4 49.7924 55.4 48.8C55.4 48.0188 54.8966 47.3588 54.2 47.1104V45.8C54.2 45.1382 53.6618 44.6 53 44.6H48.8V42.2H52.4C52.7318 42.2 53 41.9318 53 41.6C53 41.2682 52.7318 41 52.4 41H48.8V38.6H52.5104C52.7588 39.2966 53.4188 39.8 54.2 39.8C55.1924 39.8 56 38.9924 56 38C56 37.0076 55.1924 36.2 54.2 36.2ZM53.6 26.6C53.9312 26.6 54.2 26.8688 54.2 27.2C54.2 27.5312 53.9312 27.8 53.6 27.8C53.2688 27.8 53 27.5312 53 27.2C53 26.8688 53.2688 26.6 53.6 26.6ZM48.8 21.8C49.1312 21.8 49.4 22.0688 49.4 22.4C49.4 22.7312 49.1312 23 48.8 23C48.4688 23 48.2 22.7312 48.2 22.4C48.2 22.0688 48.4688 21.8 48.8 21.8ZM38 21.2C38.3312 21.2 38.6 21.4688 38.6 21.8C38.6 22.1312 38.3312 22.4 38 22.4C37.6688 22.4 37.4 22.1312 37.4 21.8C37.4 21.4688 37.6688 21.2 38 21.2ZM27.2 23C26.8688 23 26.6 22.7312 26.6 22.4C26.6 22.0688 26.8688 21.8 27.2 21.8C27.5312 21.8 27.8 22.0688 27.8 22.4C27.8 22.7312 27.5312 23 27.2 23ZM22.4 26.6C22.7312 26.6 23 26.8688 23 27.2C23 27.5312 22.7312 27.8 22.4 27.8C22.0688 27.8 21.8 27.5312 21.8 27.2C21.8 26.8688 22.0688 26.6 22.4 26.6ZM21.8 38.6C21.4688 38.6 21.2 38.3312 21.2 38C21.2 37.6688 21.4688 37.4 21.8 37.4C22.1312 37.4 22.4 37.6688 22.4 38C22.4 38.3312 22.1312 38.6 21.8 38.6ZM22.4 49.4C22.0688 49.4 21.8 49.1312 21.8 48.8C21.8 48.4688 22.0688 48.2 22.4 48.2C22.7312 48.2 23 48.4688 23 48.8C23 49.1312 22.7312 49.4 22.4 49.4ZM27.2 54.2C26.8688 54.2 26.6 53.9312 26.6 53.6C26.6 53.2688 26.8688 53 27.2 53C27.5312 53 27.8 53.2688 27.8 53.6C27.8 53.9312 27.5312 54.2 27.2 54.2ZM38 54.8C37.6688 54.8 37.4 54.5312 37.4 54.2C37.4 53.8688 37.6688 53.6 38 53.6C38.3312 53.6 38.6 53.8688 38.6 54.2C38.6 54.5312 38.3312 54.8 38 54.8ZM48.8 53C49.1312 53 49.4 53.2688 49.4 53.6C49.4 53.9312 49.1312 54.2 48.8 54.2C48.4688 54.2 48.2 53.9312 48.2 53.6C48.2 53.2688 48.4688 53 48.8 53ZM53.6 49.4C53.2688 49.4 53 49.1312 53 48.8C53 48.4688 53.2688 48.2 53.6 48.2C53.9312 48.2 54.2 48.4688 54.2 48.8C54.2 49.1312 53.9312 49.4 53.6 49.4ZM47.6 46.4C47.6 47.0618 47.0618 47.6 46.4 47.6H29.6C28.9382 47.6 28.4 47.0618 28.4 46.4V29.6C28.4 28.9382 28.9382 28.4 29.6 28.4H46.4C47.0618 28.4 47.6 28.9382 47.6 29.6V46.4ZM54.2 38.6C53.8688 38.6 53.6 38.3312 53.6 38C53.6 37.6688 53.8688 37.4 54.2 37.4C54.5312 37.4 54.8 37.6688 54.8 38C54.8 38.3312 54.5312 38.6 54.2 38.6Z" fill="#20282D"/>
<path d="M35.3074 33.3261C35.212 32.8989 34.8394 32.6001 34.4008 32.6001C33.9622 32.6001 33.5896 32.8989 33.4936 33.3273L31.4146 42.6699C31.3432 42.9933 31.5472 43.3137 31.8706 43.3857C32.1892 43.4565 32.5138 43.2543 32.5864 42.9297L33.283 39.7995H35.518L36.2146 42.9297C36.277 43.2099 36.5254 43.3995 36.8002 43.3995C36.8434 43.3995 36.8878 43.3947 36.931 43.3857C37.2544 43.3137 37.4584 42.9933 37.387 42.6699L35.3074 33.3261ZM33.5506 38.6001L34.4014 34.7769L35.2522 38.6001H33.5506Z" fill="#20282D"/>
<path d="M42.7996 33.8001C43.1314 33.8001 43.3996 33.5319 43.3996 33.2001C43.3996 32.8683 43.1314 32.6001 42.7996 32.6001H39.1996C38.8678 32.6001 38.5996 32.8683 38.5996 33.2001C38.5996 33.5319 38.8678 33.8001 39.1996 33.8001H40.3996V42.2001H39.1996C38.8678 42.2001 38.5996 42.4683 38.5996 42.8001C38.5996 43.1319 38.8678 43.4001 39.1996 43.4001H42.7996C43.1314 43.4001 43.3996 43.1319 43.3996 42.8001C43.3996 42.4683 43.1314 42.2001 42.7996 42.2001H41.5996V33.8001H42.7996Z" fill="#20282D"/>
</g>
<defs>
<clipPath id="clip0_2000_612">
<rect width="36" height="36" fill="white" transform="translate(20 20)"/>
</clipPath>
</defs>
</svg>
