<svg width="76" height="76" viewBox="0 0 76 76" fill="none" xmlns="http://www.w3.org/2000/svg">
<path d="M0 0H76V62V76H62H38H0V0Z" fill="#F2F2F2"/>
<path d="M49.3201 51.8328C48.2673 51.8328 47.3804 52.5556 47.1301 53.5316H44.8445C44.4807 53.5316 44.1854 53.2353 44.1854 52.8725V47.8334H44.5313C47.7845 47.8334 50.431 45.1869 50.431 41.9338C50.431 39.3669 48.7848 37.1244 46.3763 36.3312C46.5723 35.2953 47.2576 34.4947 48.046 33.5741C49.3023 32.1078 50.7273 30.4456 50.656 27.3331C50.6523 23.1041 47.2107 19.6653 42.9816 19.6653C38.7526 19.6653 35.3101 23.1041 35.3073 27.3331C35.266 29.1631 35.7413 30.4916 36.3948 31.5734C36.1763 31.7047 35.9654 31.8491 35.7648 32.0075C34.7616 30.6209 33.1491 29.7828 31.4091 29.7828C28.4457 29.7828 26.0354 32.1941 26.0354 35.1566C26.0354 35.4828 26.0645 35.8072 26.1226 36.1259C23.3485 36.6219 21.2616 39.0547 21.2616 41.9338C21.2616 45.1869 23.9082 47.8334 27.1613 47.8334H27.5073V52.8725C27.5073 53.2363 27.211 53.5316 26.8482 53.5316H24.5626C24.3123 52.5556 23.4245 51.8328 22.3726 51.8328C21.1257 51.8328 20.1113 52.8472 20.1113 54.0941C20.1113 55.3409 21.1257 56.3553 22.3726 56.3553C23.4254 56.3553 24.3123 55.6325 24.5626 54.6566H26.8482C27.8326 54.6566 28.6323 53.8559 28.6323 52.8725V47.8334H32.6748V56.1425C31.6988 56.3928 30.976 57.2806 30.976 58.3325C30.976 59.5794 31.9904 60.5938 33.2373 60.5938C34.4841 60.5938 35.4985 59.5794 35.4985 58.3325C35.4985 57.2797 34.7757 56.3928 33.7998 56.1425V47.8334H37.892V53.6028C36.916 53.8531 36.1932 54.7409 36.1932 55.7928C36.1932 57.0397 37.2076 58.0541 38.4545 58.0541C39.7013 58.0541 40.7157 57.0397 40.7157 55.7928C40.7157 54.74 39.9929 53.8531 39.017 53.6028V47.8334H43.0595V52.8725C43.0595 53.8569 43.8601 54.6566 44.8435 54.6566H47.1291C47.3795 55.6325 48.2673 56.3553 49.3191 56.3553C50.566 56.3553 51.5804 55.3409 51.5804 54.0941C51.5813 52.8472 50.567 51.8328 49.3201 51.8328ZM22.3735 55.2303C21.7473 55.2303 21.2373 54.7203 21.2373 54.0941C21.2373 53.4678 21.7473 52.9578 22.3735 52.9578C22.9998 52.9578 23.5098 53.4678 23.5098 54.0941C23.5098 54.7213 22.9998 55.2303 22.3735 55.2303ZM34.3745 58.3325C34.3745 58.9588 33.8645 59.4688 33.2382 59.4688C32.612 59.4688 32.102 58.9588 32.102 58.3325C32.102 57.7062 32.612 57.1963 33.2382 57.1963C33.8645 57.1963 34.3745 57.7062 34.3745 58.3325ZM39.5916 55.7928C39.5916 56.4191 39.0816 56.9291 38.4554 56.9291C37.8291 56.9291 37.3191 56.4191 37.3191 55.7928C37.3191 55.1666 37.8291 54.6566 38.4554 54.6566C39.0816 54.6566 39.5916 55.1666 39.5916 55.7928ZM42.0057 35.075H43.9576V35.8353H42.0057V35.075ZM45.2316 36.9603V38.1022H40.7326V36.9603H45.2316ZM40.7316 39.2272H45.2307V39.6706L44.2248 40.6728C44.0457 40.8509 43.8554 40.9344 43.6238 40.9344H42.3385C42.107 40.9344 41.9166 40.8509 41.7376 40.6728L40.7316 39.6706V39.2272ZM36.4323 27.3519C36.4323 27.3472 36.4323 27.3434 36.4323 27.3387C36.4323 23.7275 39.3704 20.7894 42.9816 20.7894C46.5929 20.7894 49.531 23.7275 49.531 27.3387V27.3519C49.5938 30.0387 48.3723 31.4638 47.192 32.8409C46.396 33.77 45.6395 34.6531 45.3338 35.8344H45.0816V34.5125C45.0816 34.2022 44.8295 33.95 44.5191 33.95H44.2004L44.8913 28.5003C45.0863 28.5856 45.3113 28.6344 45.5645 28.6344C46.4626 28.6344 47.1929 27.9041 47.1929 27.0059C47.1929 26.1078 46.4626 25.3775 45.5645 25.3775C45.0798 25.3775 44.6495 25.5631 44.3532 25.9016C44.0973 26.1931 43.9548 26.5775 43.951 26.9872C43.9482 27.0003 43.9463 27.0134 43.9445 27.0266L43.067 33.95H42.8935L42.0179 27.0444C42.016 27.0312 42.0141 27.0181 42.0113 27.005C42.0076 26.5963 41.8651 26.2109 41.6091 25.9194C41.3129 25.5819 40.8826 25.3953 40.3979 25.3953C39.4998 25.3953 38.7695 26.1256 38.7695 27.0238C38.7695 27.9219 39.4998 28.6522 40.3979 28.6522C40.651 28.6522 40.8751 28.6034 41.071 28.5181L41.7601 33.95H41.4441C41.1338 33.95 40.8816 34.2022 40.8816 34.5125V35.8353H40.6295C40.3238 34.6541 39.5673 33.77 38.7713 32.8419C37.5901 31.4637 36.3685 30.0387 36.4323 27.3519ZM45.076 27.005C45.076 26.8644 45.121 26.7331 45.1988 26.6441C45.2823 26.5494 45.4013 26.5034 45.5645 26.5034C45.842 26.5034 46.0679 26.7294 46.0679 27.0069C46.0679 27.2844 45.842 27.5103 45.5645 27.5103C45.1116 27.5094 45.076 27.1231 45.076 27.005ZM40.8873 27.0228C40.8873 27.1409 40.8516 27.5272 40.3988 27.5272C40.1213 27.5272 39.8954 27.3012 39.8954 27.0238C39.8954 26.7463 40.1213 26.5203 40.3988 26.5203C40.562 26.5203 40.681 26.5662 40.7645 26.6609C40.8423 26.7509 40.8873 26.8822 40.8873 27.0228ZM22.3876 41.9328C22.3876 39.4213 24.3507 37.3288 26.8566 37.1684C27.0291 37.1572 27.1876 37.0672 27.2851 36.9247C27.3826 36.7822 27.4098 36.6022 27.3573 36.4372C27.227 36.0238 27.1604 35.5934 27.1604 35.1556C27.1604 32.8128 29.0663 30.9069 31.4091 30.9069C32.9701 30.9069 34.4026 31.76 35.1479 33.1344C35.2323 33.29 35.3851 33.3969 35.5613 33.4231C35.7366 33.4494 35.9138 33.3903 36.0395 33.2647C36.3385 32.9666 36.6713 32.7116 37.0332 32.5006C37.3229 32.8794 37.6248 33.2319 37.9173 33.5731C38.7348 34.5266 39.4407 35.3525 39.6066 36.4447V39.9041C39.6066 40.0531 39.6666 40.1966 39.7726 40.3025L40.9445 41.4697C41.3373 41.8606 41.806 42.0594 42.3395 42.0594H43.6248C44.1582 42.0594 44.6279 41.8606 45.0198 41.4697L46.1916 40.3025C46.2976 40.1966 46.3576 40.0531 46.3576 39.9041V37.5228C48.1248 38.2531 49.3079 39.9763 49.3079 41.9328C49.3079 44.5653 47.1657 46.7075 44.5332 46.7075H27.1623C24.5288 46.7075 22.3876 44.5663 22.3876 41.9328ZM49.3201 55.2303C48.6938 55.2303 48.1838 54.7203 48.1838 54.0941C48.1838 53.4678 48.6938 52.9578 49.3201 52.9578C49.9463 52.9578 50.4563 53.4678 50.4563 54.0941C50.4563 54.7213 49.9473 55.2303 49.3201 55.2303ZM42.4191 18.1419V15.9688C42.4191 15.6584 42.6713 15.4062 42.9816 15.4062C43.292 15.4062 43.5441 15.6584 43.5441 15.9688V18.1419C43.5441 18.4522 43.292 18.7044 42.9816 18.7044C42.6713 18.7044 42.4191 18.4531 42.4191 18.1419ZM36.3226 17.9037C36.167 17.6347 36.2598 17.2906 36.5288 17.135C36.7979 16.9794 37.142 17.0722 37.2976 17.3412L38.3841 19.2238C38.5398 19.4928 38.447 19.8369 38.1779 19.9925C38.0898 20.0431 37.9923 20.0675 37.8976 20.0675C37.7035 20.0675 37.5141 19.9662 37.4101 19.7863L36.3226 17.9037ZM31.8048 21.8591C31.9604 21.59 32.3045 21.4981 32.5735 21.6528L34.456 22.7394C34.7251 22.895 34.817 23.2391 34.6623 23.5081C34.5582 23.6881 34.3688 23.7894 34.1748 23.7894C34.0791 23.7894 33.9826 23.765 33.8945 23.7144L32.012 22.6278C31.741 22.4722 31.6491 22.1281 31.8048 21.8591ZM30.0751 28.3128C30.0751 28.0025 30.3273 27.7503 30.6376 27.7503H32.8107C33.121 27.7503 33.3732 28.0025 33.3732 28.3128C33.3732 28.6231 33.121 28.8753 32.8107 28.8753H30.6376C30.3273 28.8753 30.0751 28.6231 30.0751 28.3128ZM47.5791 19.2238L48.6657 17.3412C48.8213 17.0722 49.1654 16.9803 49.4345 17.135C49.7035 17.2906 49.7954 17.6347 49.6407 17.9037L48.5541 19.7863C48.4501 19.9662 48.2607 20.0675 48.0666 20.0675C47.971 20.0675 47.8745 20.0431 47.7863 19.9925C47.5163 19.8369 47.4245 19.4928 47.5791 19.2238ZM53.9523 22.6278L52.0698 23.7144C51.9816 23.765 51.8841 23.7894 51.7895 23.7894C51.5954 23.7894 51.406 23.6881 51.302 23.5081C51.1463 23.2391 51.2391 22.895 51.5082 22.7394L53.3907 21.6528C53.6598 21.4981 54.0038 21.59 54.1595 21.8591C54.3151 22.1281 54.2213 22.4722 53.9523 22.6278ZM55.8873 28.3128C55.8873 28.6231 55.6351 28.8753 55.3248 28.8753H53.1516C52.8413 28.8753 52.5891 28.6231 52.5891 28.3128C52.5891 28.0025 52.8413 27.7503 53.1516 27.7503H55.3248C55.636 27.7503 55.8873 28.0016 55.8873 28.3128Z" fill="#20282D"/>
</svg>
