<svg width="76" height="76" viewBox="0 0 76 76" fill="none" xmlns="http://www.w3.org/2000/svg">
<path d="M0 0H76V62V76H62H38H0V0Z" fill="#F2F2F2"/>
<g clip-path="url(#clip0_2000_587)">
<path d="M32.0625 32.6563H27.9063V28.5C27.9063 28.3425 27.8437 28.1915 27.7323 28.0802C27.621 27.9688 27.47 27.9062 27.3125 27.9062C26.2556 27.9062 25.2224 28.2197 24.3437 28.8068C23.4649 29.394 22.78 30.2286 22.3755 31.205C21.9711 32.1815 21.8652 33.2559 22.0714 34.2925C22.2776 35.3291 22.7866 36.2813 23.5339 37.0286C24.2812 37.7759 25.2334 38.2849 26.27 38.4911C27.3066 38.6973 28.381 38.5914 29.3575 38.187C30.3339 37.7825 31.1685 37.0976 31.7557 36.2188C32.3428 35.3401 32.6563 34.3069 32.6563 33.25C32.6563 33.0925 32.5937 32.9415 32.4823 32.8302C32.371 32.7188 32.22 32.6563 32.0625 32.6563ZM26.7188 29.1359V33.0042L23.9875 35.7354C23.554 35.1592 23.2782 34.4799 23.1874 33.7645C23.0965 33.0491 23.1938 32.3224 23.4695 31.6561C23.7453 30.9898 24.19 30.4069 24.7598 29.965C25.3296 29.523 26.0048 29.2373 26.7188 29.1359ZM27.3125 37.4063C26.4161 37.4062 25.5441 37.1144 24.8283 36.575L27.5595 33.8438H31.4278C31.2837 34.8327 30.7886 35.7367 30.0331 36.3908C29.2775 37.0449 28.3118 37.4053 27.3125 37.4063Z" fill="#20282D"/>
<path d="M29.6875 31.4688H34.4375C34.595 31.4688 34.746 31.4062 34.8573 31.2948C34.9687 31.1835 35.0312 31.0325 35.0312 30.875C35.0295 29.4583 34.466 28.1001 33.4642 27.0983C32.4624 26.0965 31.1042 25.533 29.6875 25.5312C29.53 25.5312 29.379 25.5938 29.2677 25.7052C29.1563 25.8165 29.0938 25.9675 29.0938 26.125V30.875C29.0938 31.0325 29.1563 31.1835 29.2677 31.2948C29.379 31.4062 29.53 31.4688 29.6875 31.4688ZM30.2812 26.7609C31.1688 26.8907 31.9907 27.3033 32.625 27.9375C33.2592 28.5718 33.6718 29.3937 33.8016 30.2812H30.2812V26.7609Z" fill="#20282D"/>
<path d="M42.1563 34.4375C40.6296 34.4375 39.1373 34.8902 37.8679 35.7383C36.5986 36.5865 35.6093 37.792 35.0251 39.2024C34.4408 40.6128 34.288 42.1648 34.5858 43.6621C34.8836 45.1594 35.6188 46.5347 36.6983 47.6142C37.7778 48.6937 39.1531 49.4289 40.6504 49.7267C42.1477 50.0245 43.6997 49.8717 45.1101 49.2874C46.5205 48.7032 47.726 47.7139 48.5742 46.4446C49.4223 45.1752 49.875 43.6829 49.875 42.1562C49.8726 40.1098 49.0587 38.1479 47.6116 36.7009C46.1646 35.2538 44.2027 34.4399 42.1563 34.4375ZM39.1875 39.7812V36.3458C39.5671 36.1514 39.9648 35.9947 40.375 35.8779V39.7812H39.1875ZM46.3125 40.9688V42.1562H38V40.9688H46.3125ZM43.9375 39.7812V35.8779C44.3477 35.9947 44.7454 36.1514 45.125 36.3458V39.7812H43.9375ZM42.75 35.6553V39.7812H41.5625V35.6553C41.7584 35.6375 41.9556 35.625 42.1563 35.625C42.3569 35.625 42.5541 35.6375 42.75 35.6553ZM38 37.1218V39.7812H37.4063C37.2488 39.7812 37.0978 39.8438 36.9864 39.9552C36.8751 40.0665 36.8125 40.2175 36.8125 40.375V42.75C36.8125 42.9075 36.8751 43.0585 36.9864 43.1698C37.0978 43.2812 37.2488 43.3438 37.4063 43.3438H46.9063C47.0637 43.3438 47.2147 43.2812 47.3261 43.1698C47.4374 43.0585 47.5 42.9075 47.5 42.75V40.375C47.5 40.2175 47.4374 40.0665 47.3261 39.9552C47.2147 39.8438 47.0637 39.7812 46.9063 39.7812H46.3125V37.1218C47.3755 37.9947 48.1342 39.1823 48.4794 40.5138C48.8247 41.8452 48.7387 43.2518 48.2339 44.5312H36.0786C35.5738 43.2518 35.4878 41.8452 35.8331 40.5138C36.1783 39.1823 36.937 37.9947 38 37.1218ZM42.1563 48.6875C41.0699 48.6864 40.0011 48.4143 39.0464 47.8959C38.0918 47.3775 37.2815 46.6292 36.689 45.7188H47.6235C47.031 46.6292 46.2207 47.3775 45.2661 47.8959C44.3114 48.4143 43.2426 48.6864 42.1563 48.6875Z" fill="#20282D"/>
<path d="M55.6172 51.8088L53.0486 49.2403C53.1673 49.0167 53.2115 48.761 53.1746 48.5105C53.1378 48.26 53.0219 48.0279 52.8438 47.8479L51.3327 46.3368C52.0604 44.7548 52.3635 43.0104 52.212 41.2755C52.0606 39.5407 51.4597 37.8752 50.4688 36.4432V21.375C50.4688 20.9026 50.2811 20.4495 49.947 20.1155C49.613 19.7814 49.1599 19.5938 48.6875 19.5938H21.375C20.9026 19.5938 20.4495 19.7814 20.1155 20.1155C19.7814 20.4495 19.5938 20.9026 19.5938 21.375V43.9375C19.5938 44.4099 19.7814 44.863 20.1155 45.197C20.4495 45.5311 20.9026 45.7188 21.375 45.7188H32.7239C33.2081 47.0129 33.9538 48.1933 34.9145 49.1863C35.8752 50.1794 37.0303 50.9638 38.3077 51.4906C39.585 52.0174 40.9573 52.2752 42.3387 52.2481C43.7202 52.2209 45.0812 51.9093 46.3368 51.3327L47.8479 52.8438C48.0265 53.0242 48.2588 53.1418 48.5099 53.1787C48.761 53.2156 49.0174 53.17 49.2403 53.0486L51.8088 55.6172C52.3139 56.1222 52.9988 56.4059 53.713 56.4059C54.4272 56.4059 55.1121 56.1222 55.6172 55.6172C56.1222 55.1121 56.4059 54.4272 56.4059 53.713C56.4059 52.9988 56.1222 52.3139 55.6172 51.8088ZM21.375 20.7812H48.6875C48.845 20.7812 48.996 20.8438 49.1073 20.9552C49.2187 21.0665 49.2812 21.2175 49.2812 21.375V23.1562H20.7812V21.375C20.7812 21.2175 20.8438 21.0665 20.9552 20.9552C21.0665 20.8438 21.2175 20.7812 21.375 20.7812ZM21.375 44.5312C21.2175 44.5312 21.0665 44.4687 20.9552 44.3573C20.8438 44.246 20.7812 44.095 20.7812 43.9375V24.3438H49.2812V35.014C48.422 34.1601 47.4165 33.4673 46.3125 32.9686V26.125C46.3125 25.9675 46.2499 25.8165 46.1386 25.7052C46.0272 25.5938 45.8762 25.5312 45.7188 25.5312H43.3438C43.1863 25.5312 43.0353 25.5938 42.9239 25.7052C42.8126 25.8165 42.75 25.9675 42.75 26.125V32.0928C42.5523 32.0809 42.3569 32.0625 42.1562 32.0625C41.9556 32.0625 41.7602 32.0809 41.5625 32.0928V29.6875C41.5625 29.53 41.4999 29.379 41.3886 29.2677C41.2772 29.1563 41.1262 29.0938 40.9688 29.0938H38.5938C38.4363 29.0938 38.2853 29.1563 38.1739 29.2677C38.0626 29.379 38 29.53 38 29.6875V32.9686C35.8527 33.9279 34.1111 35.6118 33.0799 37.7256C32.0488 39.8394 31.7937 42.2484 32.3594 44.5312H21.375ZM45.125 32.5096C44.7353 32.3921 44.3387 32.2985 43.9375 32.2293V26.7188H45.125V32.5096ZM40.375 32.2293C39.9738 32.2985 39.5772 32.3921 39.1875 32.5096V30.2812H40.375V32.2293ZM33.25 42.1562C33.25 40.3948 33.7723 38.6728 34.751 37.2082C35.7296 35.7436 37.1206 34.602 38.748 33.9279C40.3754 33.2539 42.1661 33.0775 43.8938 33.4211C45.6214 33.7648 47.2084 34.613 48.4539 35.8586C49.6995 37.1041 50.5477 38.6911 50.8914 40.4187C51.235 42.1464 51.0586 43.9371 50.3846 45.5645C49.7105 47.1919 48.5689 48.5829 47.1043 49.5615C45.6397 50.5402 43.9177 51.0625 42.1562 51.0625C39.795 51.0598 37.5312 50.1206 35.8615 48.451C34.1919 46.7813 33.2527 44.5175 33.25 42.1562ZM47.4299 50.7466C48.7792 49.9151 49.9151 48.7792 50.7466 47.4299L52.0042 48.6875L48.6875 52.0042L47.4299 50.7466ZM53.713 55.2188C53.5152 55.2192 53.3193 55.1805 53.1365 55.1048C52.9538 55.0291 52.7879 54.9178 52.6484 54.7776L50.1208 52.25L52.25 50.1208L54.7776 52.6484C54.9881 52.859 55.1315 53.1273 55.1896 53.4193C55.2476 53.7114 55.2178 54.0141 55.1039 54.2892C54.9899 54.5643 54.797 54.7994 54.5494 54.9649C54.3018 55.1304 54.0108 55.2187 53.713 55.2188Z" fill="#20282D"/>
<path d="M29.6875 39.7812H22.5625C22.405 39.7812 22.254 39.8438 22.1427 39.9552C22.0313 40.0665 21.9688 40.2175 21.9688 40.375V42.75C21.9688 42.9075 22.0313 43.0585 22.1427 43.1698C22.254 43.2812 22.405 43.3438 22.5625 43.3438H29.6875C29.845 43.3438 29.996 43.2812 30.1073 43.1698C30.2187 43.0585 30.2812 42.9075 30.2812 42.75V40.375C30.2812 40.2175 30.2187 40.0665 30.1073 39.9552C29.996 39.8438 29.845 39.7812 29.6875 39.7812ZM29.0938 42.1562H23.1562V40.9688H29.0938V42.1562Z" fill="#20282D"/>
</g>
<defs>
<clipPath id="clip0_2000_587">
<rect width="38" height="38" fill="white" transform="translate(19 19)"/>
</clipPath>
</defs>
</svg>
