<svg width="76" height="76" viewBox="0 0 76 76" fill="none" xmlns="http://www.w3.org/2000/svg">
<path d="M0 0H76V62V76H62H38H0V0Z" fill="#F2F2F2"/>
<g clip-path="url(#clip0_2000_577)">
<path d="M37.375 22.0195V20.5283C37.375 20.1832 37.6548 19.9033 38 19.9033C38.3452 19.9033 38.625 20.1832 38.625 20.5283V22.0195C38.625 22.3646 38.3452 22.6445 38 22.6445C37.6548 22.6445 37.375 22.3647 37.375 22.0195ZM32.6841 23.6114C32.7998 23.8118 33.0099 23.9239 33.2259 23.9239C33.332 23.9239 33.4395 23.8969 33.5379 23.8401C33.8368 23.6675 33.9392 23.2853 33.7666 22.9864L33.0211 21.695C32.8485 21.396 32.4662 21.2938 32.1673 21.4662C31.8684 21.6388 31.766 22.0211 31.9386 22.32L32.6841 23.6114ZM28.1261 26.5899L29.4175 27.3354C29.5159 27.3923 29.6234 27.4193 29.7295 27.4193C29.9455 27.4193 30.1555 27.3071 30.2713 27.1067C30.4439 26.8078 30.3415 26.4255 30.0426 26.2529L28.7512 25.5074C28.4523 25.3347 28.07 25.4371 27.8974 25.7361C27.7248 26.035 27.8272 26.4173 28.1261 26.5899ZM42.4622 23.8402C42.5606 23.8971 42.668 23.924 42.7741 23.924C42.9902 23.924 43.2002 23.8119 43.316 23.6114L44.0616 22.32C44.2341 22.0211 44.1317 21.6389 43.8328 21.4663C43.5338 21.2936 43.1516 21.3961 42.9791 21.695L42.2335 22.9864C42.0609 23.2854 42.1633 23.6676 42.4622 23.8402ZM46.2705 27.4193C46.3766 27.4193 46.4841 27.3923 46.5825 27.3355L47.8739 26.59C48.1728 26.4174 48.2752 26.0351 48.1027 25.7362C47.9301 25.4373 47.5478 25.335 47.2489 25.5075L45.9575 26.253C45.6586 26.4256 45.5562 26.8079 45.7288 27.1068C45.8445 27.3072 46.0546 27.4193 46.2705 27.4193ZM49.192 45.7C48.997 46.4259 48.732 47.1293 48.4 47.8027H50.2577C50.4875 47.8027 50.6987 47.9289 50.8078 48.1311L51.679 49.7474H52.6241C52.8884 48.9333 53.6537 48.3429 54.5547 48.3429C55.6737 48.3429 56.5841 49.2533 56.5841 50.3724C56.5841 51.4914 55.6737 52.4018 54.5547 52.4018C53.6537 52.4018 52.8884 51.8114 52.6242 50.9974H51.3059C51.0761 50.9974 50.8648 50.8712 50.7558 50.6689L49.8846 49.0527H48.3027L48.8345 50.25C48.9394 50.4862 48.888 50.7627 48.7052 50.9456L46.2584 53.3924C46.0756 53.5752 45.7991 53.6266 45.5628 53.5217L43.7831 52.7313C42.9118 53.2341 41.9825 53.6193 41.0126 53.8798L40.3135 55.696C40.2207 55.9373 39.9888 56.0964 39.7302 56.0964H36.27C36.0114 56.0964 35.7796 55.9372 35.6867 55.696L34.9874 53.8793C34.0182 53.6189 33.0891 53.2337 32.2177 52.731L30.4373 53.5217C30.201 53.6267 29.9246 53.5753 29.7417 53.3924L27.2949 50.9457C27.1121 50.7629 27.0607 50.4864 27.1656 50.25L27.6974 49.0527H26.1155L25.2443 50.6689C25.1352 50.8712 24.924 50.9974 24.6941 50.9974H23.3759C23.1116 51.8114 22.3463 52.4018 21.4454 52.4018C20.3263 52.4018 19.4159 51.4914 19.4159 50.3724C19.4159 49.2533 20.3263 48.3429 21.4454 48.3429C22.3463 48.3429 23.1117 48.9333 23.3759 49.7474H24.3211L25.1923 48.1311C25.3013 47.9289 25.5126 47.8027 25.7424 47.8027H27.5995C27.2677 47.1294 27.0027 46.426 26.8076 45.6998L24.9914 45.0007C24.7501 44.9079 24.5909 44.676 24.5909 44.4174V43.3122H22.585C22.3208 44.1263 21.5555 44.7167 20.6545 44.7167C19.5354 44.7168 18.625 43.8063 18.625 42.6873C18.625 41.5683 19.5354 40.6579 20.6545 40.6579C21.5555 40.6579 22.3208 41.2482 22.585 42.0623H24.5909V40.9572C24.5909 40.6986 24.7502 40.4668 24.9914 40.3739L26.8079 39.6747C27.0029 38.9485 27.268 38.2449 27.6002 37.5713H25.7424C25.5126 37.5713 25.3013 37.4451 25.1923 37.2429L24.3211 35.6266H23.3759C23.1117 36.4407 22.3464 37.0311 21.4455 37.0311C20.3264 37.0311 19.416 36.1207 19.416 35.0016C19.416 33.8826 20.3264 32.9721 21.4455 32.9721C22.3464 32.9721 23.1117 33.5625 23.3759 34.3766H24.6942C24.9241 34.3766 25.1353 34.5028 25.2444 34.705L26.1155 36.3213H27.6972L27.1657 35.1247C27.0608 34.8885 27.1121 34.612 27.2949 34.4291L29.7416 31.9822C29.9245 31.7994 30.201 31.7481 30.4373 31.8529L31.2521 32.2148C31.1258 31.7394 31.0445 31.1807 31.0445 30.49C31.0445 26.6547 34.1647 23.5345 38.0001 23.5345C41.8354 23.5345 44.9556 26.6547 44.9556 30.49C44.9556 31.1734 44.8773 31.7313 44.7489 32.2144L45.5627 31.853C45.7989 31.7482 46.0755 31.7994 46.2584 31.9823L48.7052 34.429C48.888 34.6118 48.9394 34.8883 48.8345 35.1247L48.303 36.3214H49.8846L50.7558 34.7051C50.8648 34.5029 51.0761 34.3767 51.3059 34.3767H52.6242C52.8884 33.5626 53.6538 32.9722 54.5547 32.9722C55.6737 32.9722 56.5841 33.8826 56.5841 35.0017C56.5841 36.1207 55.6737 37.0311 54.5547 37.0311C53.6537 37.0311 52.8884 36.4408 52.6241 35.6267H51.6789L50.8077 37.2429C50.6987 37.4452 50.4874 37.5714 50.2576 37.5714H48.4003C48.7323 38.2449 48.9974 38.9486 49.1926 39.675L51.0088 40.374C51.25 40.4668 51.4092 40.6987 51.4092 40.9573V42.0624H53.4151C53.6793 41.2483 54.4446 40.6579 55.3455 40.6579C56.4646 40.6579 57.375 41.5683 57.375 42.6874C57.375 43.8064 56.4646 44.7168 55.3455 44.7168C54.4445 44.7168 53.6792 44.1264 53.415 43.3124H51.4091V44.4175C51.4091 44.6761 51.2499 44.9079 51.0087 45.0008L49.192 45.7ZM54.5661 42.6873C54.5661 43.1171 54.9158 43.4668 55.3455 43.4668C55.7753 43.4668 56.125 43.1171 56.125 42.6873C56.125 42.2575 55.7753 41.9079 55.3455 41.9079C54.9158 41.9079 54.5661 42.2575 54.5661 42.6873ZM53.7752 35.0015C53.7752 35.4313 54.1248 35.781 54.5546 35.781C54.9844 35.781 55.3341 35.4313 55.3341 35.0015C55.3341 34.5718 54.9844 34.2221 54.5546 34.2221C54.1248 34.2221 53.7752 34.5718 53.7752 35.0015ZM22.2248 35.0015C22.2248 34.5718 21.8752 34.2221 21.4454 34.2221C21.0156 34.2221 20.6659 34.5718 20.6659 35.0015C20.6659 35.4313 21.0156 35.781 21.4454 35.781C21.8752 35.781 22.2248 35.4313 22.2248 35.0015ZM21.4339 42.6873C21.4339 42.2575 21.0842 41.9079 20.6545 41.9079C20.2247 41.9079 19.875 42.2575 19.875 42.6873C19.875 43.1171 20.2247 43.4668 20.6545 43.4668C21.0842 43.4668 21.4339 43.1171 21.4339 42.6873ZM22.2248 50.3724C22.2248 49.9426 21.8752 49.5929 21.4454 49.5929C21.0156 49.5929 20.6659 49.9426 20.6659 50.3724C20.6659 50.8022 21.0156 51.1518 21.4454 51.1518C21.8752 51.1518 22.2248 50.8022 22.2248 50.3724ZM53.7752 50.3724C53.7752 50.8022 54.1248 51.1518 54.5546 51.1518C54.9844 51.1518 55.3341 50.8022 55.3341 50.3724C55.3341 49.9426 54.9844 49.5929 54.5546 49.5929C54.1248 49.5929 53.7752 49.9426 53.7752 50.3724ZM32.2944 30.49C32.2944 31.6038 32.5334 32.2821 32.8924 32.958C33.0009 33.1622 33.1189 33.3639 33.244 33.5776C33.8359 34.5893 34.5625 35.8311 34.7992 38.3533H36.2818V32.6327H35.4357C34.2799 32.6327 33.3396 31.6924 33.3396 30.5366C33.3396 29.3808 34.2799 28.4405 35.4357 28.4405C36.5915 28.4405 37.5318 29.3808 37.5318 30.5366V31.3827H38.4682V30.5366C38.4682 29.3808 39.4085 28.4405 40.5643 28.4405C41.7201 28.4405 42.6604 29.3808 42.6604 30.5366C42.6604 31.6924 41.7201 32.6327 40.5643 32.6327H39.7182V38.3533H41.2007C41.4374 35.8311 42.1641 34.5893 42.7559 33.5777C43.2865 32.671 43.7055 31.9548 43.7055 30.4901C43.7055 27.344 41.146 24.7846 38 24.7846C34.8539 24.7845 32.2944 27.3439 32.2944 30.49ZM36.2818 30.5366C36.2818 30.07 35.9023 29.6905 35.4357 29.6905C34.9691 29.6905 34.5896 30.07 34.5896 30.5366C34.5896 31.0032 34.9691 31.3827 35.4357 31.3827H36.2818V30.5366ZM38.4682 32.6327H37.5318V38.3533H38.4682V32.6327ZM34.845 39.6032V40.0071C34.845 40.2259 35.0298 40.4107 35.2487 40.4107H40.7513C40.9701 40.4107 41.1549 40.2259 41.1549 40.0071V39.6032H34.845ZM36.9632 44.1221C36.9632 44.3409 37.148 44.5257 37.3669 44.5257H38.702C38.9208 44.5257 39.1056 44.3409 39.1056 44.1221V43.7182H36.9632V44.1221ZM40.1606 41.6607H35.9081V42.0645C35.9081 42.2833 36.093 42.4682 36.3119 42.4682H39.757C39.9758 42.4682 40.1606 42.2833 40.1606 42.0645V41.6607ZM33.5763 38.725C32.6042 39.8039 32.0629 41.1979 32.0629 42.6873C32.0629 45.9611 34.7262 48.6244 38 48.6244C41.2738 48.6244 43.9371 45.9611 43.9371 42.6873C43.9371 41.1979 43.3957 39.8039 42.4237 38.725C42.4169 38.8145 42.4105 38.9054 42.405 38.9987V40.0071C42.405 40.6846 41.9951 41.2675 41.4106 41.5229V42.0646C41.4106 42.7652 40.972 43.3639 40.3556 43.6045V44.1222C40.3556 45.0341 39.6137 45.7759 38.702 45.7759H37.3669C36.455 45.7759 35.7132 45.034 35.7132 44.1222V43.6045C35.0968 43.3639 34.6582 42.7652 34.6582 42.0646V41.55C34.0376 41.3115 33.5951 40.7107 33.5951 40.0072V38.9994C33.5895 38.9058 33.5831 38.8147 33.5763 38.725ZM40.5643 31.3827C41.0309 31.3827 41.4104 31.0032 41.4104 30.5366C41.4104 30.07 41.0309 29.6905 40.5643 29.6905C40.0977 29.6905 39.7182 30.07 39.7182 30.5366V31.3827H40.5643ZM48.4411 44.6496L50.1591 43.9882V41.3863L48.4416 40.7252C48.2494 40.6512 48.1059 40.4871 48.0581 40.2866C47.8048 39.2218 47.3845 38.2082 46.8092 37.2739C46.7012 37.0985 46.6866 36.8809 46.7702 36.6925L47.5177 35.0093L45.6777 33.1695L44.0078 33.9111C43.9508 34.0104 43.893 34.1094 43.8348 34.2089C43.377 34.9912 42.908 35.7937 42.6278 37.1884C44.259 38.5582 45.187 40.5408 45.187 42.6872C45.187 46.6502 41.9629 49.8743 37.9999 49.8743C34.037 49.8743 30.8128 46.6502 30.8128 42.6872C30.8128 40.5409 31.7409 38.5583 33.372 37.1885C33.0918 35.7937 32.6229 34.9911 32.1651 34.2088C32.108 34.1112 32.05 34.0117 31.9924 33.9113L30.322 33.1694L28.4822 35.0093L29.2299 36.6929C29.3136 36.8813 29.299 37.0988 29.1909 37.2743C28.6155 38.2086 28.1953 39.2221 27.9422 40.2863C27.8945 40.4868 27.751 40.6509 27.5587 40.7249L25.8408 41.3861V43.9882L27.5583 44.6493C27.7506 44.7232 27.8941 44.8873 27.9418 45.0879C28.1952 46.1529 28.6154 47.1664 29.1906 48.1004C29.2988 48.276 29.3134 48.4935 29.2297 48.6818L28.4822 50.365L30.3221 52.2049L32.0059 51.4571C32.1942 51.3734 32.4117 51.3879 32.5873 51.4961C33.5217 52.0714 34.535 52.4915 35.5991 52.7447C35.7995 52.7925 35.9636 52.9359 36.0376 53.1282L36.6989 54.8463H39.3009L39.962 53.1288C40.036 52.9364 40.2002 52.793 40.4006 52.7453C41.4655 52.4919 42.4791 52.0718 43.4131 51.4964C43.5887 51.3883 43.8061 51.3737 43.9945 51.4574L45.6777 52.2049L47.5176 50.365L46.7698 48.6812C46.6861 48.4929 46.7007 48.2754 46.8088 48.0999C47.3841 47.1655 47.8042 46.1522 48.0575 45.0881C48.1054 44.8877 48.2488 44.7236 48.4411 44.6496Z" fill="#20282D"/>
</g>
<defs>
<clipPath id="clip0_2000_577">
<rect width="38" height="38" fill="white" transform="translate(19 19)"/>
</clipPath>
</defs>
</svg>
